<svg width="20" height="20" viewBox="0 0 20 20" fill="none" xmlns="http://www.w3.org/2000/svg">
<path d="M5 6.66659C5 4.82492 6.49167 3.33325 8.33333 3.33325C10.175 3.33325 11.6667 4.82492 11.6667 6.66659C11.6667 8.50825 10.175 9.99992 8.33333 9.99992C6.49167 9.99992 5 8.50825 5 6.66659ZM7.61667 16.4583L7.375 15.8333L7.61667 15.2083C8.2 13.7499 9.23333 12.6166 10.5083 11.8499C9.825 11.7333 9.1 11.6666 8.33333 11.6666C4.65 11.6666 1.66667 13.1583 1.66667 14.9999V16.6666H7.725C7.69167 16.5916 7.65 16.5249 7.61667 16.4583ZM14.1667 14.9999C13.7 14.9999 13.3333 15.3666 13.3333 15.8333C13.3333 16.2999 13.7 16.6666 14.1667 16.6666C14.6333 16.6666 15 16.2999 15 15.8333C15 15.3666 14.6333 14.9999 14.1667 14.9999ZM19.1667 15.8333C18.3833 17.7833 16.4417 19.1666 14.1667 19.1666C11.8917 19.1666 9.95 17.7833 9.16667 15.8333C9.95 13.8833 11.8917 12.4999 14.1667 12.4999C16.4417 12.4999 18.3833 13.8833 19.1667 15.8333ZM16.25 15.8333C16.25 14.6833 15.3167 13.7499 14.1667 13.7499C13.0167 13.7499 12.0833 14.6833 12.0833 15.8333C12.0833 16.9833 13.0167 17.9166 14.1667 17.9166C15.3167 17.9166 16.25 16.9833 16.25 15.8333Z" fill="#39D6DE"/>
</svg>
