<svg width="20" height="20" viewBox="0 0 20 20" fill="none" xmlns="http://www.w3.org/2000/svg">
<path d="M12.5 11.6666C10.25 11.6666 5.83331 12.7499 5.83331 14.9999V16.6666H19.1666V14.9999C19.1666 12.7499 14.75 11.6666 12.5 11.6666ZM12.5 9.99992C13.384 9.99992 14.2319 9.64873 14.857 9.02361C15.4821 8.39849 15.8333 7.55064 15.8333 6.66659C15.8333 5.78253 15.4821 4.93468 14.857 4.30956C14.2319 3.68444 13.384 3.33325 12.5 3.33325C11.6159 3.33325 10.7681 3.68444 10.143 4.30956C9.51784 4.93468 9.16665 5.78253 9.16665 6.66659C9.16665 7.55064 9.51784 8.39849 10.143 9.02361C10.7681 9.64873 11.6159 9.99992 12.5 9.99992ZM4.16665 12.4999L3.66665 12.0833C1.99998 10.4999 0.833313 9.49992 0.833313 8.24992C0.833313 7.24992 1.66665 6.41658 2.66665 6.41658C3.24998 6.41658 3.83331 6.66659 4.16665 7.08325C4.49998 6.66659 5.08331 6.41658 5.66665 6.41658C6.66665 6.41658 7.49998 7.16658 7.49998 8.24992C7.49998 9.49992 6.33331 10.4999 4.66665 12.0833L4.16665 12.4999Z" fill="#39D6DE"/>
</svg>
