<svg width="32" height="32" viewBox="0 0 32 32" fill="none" xmlns="http://www.w3.org/2000/svg">
<path d="M12 29.3334C11.6464 29.3334 11.3072 29.1929 11.0572 28.9429C10.8071 28.6928 10.6667 28.3537 10.6667 28.0001V24.0001H5.33332C4.62608 24.0001 3.9478 23.7191 3.4477 23.219C2.94761 22.7189 2.66666 22.0407 2.66666 21.3334V5.33341C2.66666 3.85341 3.86666 2.66675 5.33332 2.66675H26.6667C27.3739 2.66675 28.0522 2.9477 28.5523 3.4478C29.0524 3.94789 29.3333 4.62617 29.3333 5.33341V21.3334C29.3333 22.0407 29.0524 22.7189 28.5523 23.219C28.0522 23.7191 27.3739 24.0001 26.6667 24.0001H18.5333L13.6 28.9467C13.3333 29.2001 13 29.3334 12.6667 29.3334H12ZM21.3333 18.6667V17.3334C21.3333 15.5601 17.7733 14.6667 16 14.6667C14.2267 14.6667 10.6667 15.5601 10.6667 17.3334V18.6667H21.3333ZM16 8.00008C15.2927 8.00008 14.6145 8.28103 14.1144 8.78113C13.6143 9.28123 13.3333 9.9595 13.3333 10.6667C13.3333 11.374 13.6143 12.0523 14.1144 12.5524C14.6145 13.0525 15.2927 13.3334 16 13.3334C16.7072 13.3334 17.3855 13.0525 17.8856 12.5524C18.3857 12.0523 18.6667 11.374 18.6667 10.6667C18.6667 9.9595 18.3857 9.28123 17.8856 8.78113C17.3855 8.28103 16.7072 8.00008 16 8.00008Z" fill="#EEEEEE"/>
</svg>
