<svg width="16" height="16" viewBox="0 0 16 16" fill="none" xmlns="http://www.w3.org/2000/svg">
<path d="M7.99998 1.36011C4.33331 1.36011 1.33331 4.35344 1.33331 8.04011C1.33331 11.3734 3.77331 14.1401 6.95998 14.6401V9.97344H5.26665V8.04011H6.95998V6.56677C6.95998 4.89344 7.95331 3.97344 9.47998 3.97344C10.2066 3.97344 10.9666 4.10011 10.9666 4.10011V5.74677H10.1266C9.29998 5.74677 9.03998 6.26011 9.03998 6.78677V8.04011H10.8933L10.5933 9.97344H9.03998V14.6401C10.6109 14.392 12.0415 13.5905 13.0733 12.3801C14.1051 11.1698 14.6702 9.63054 14.6666 8.04011C14.6666 4.35344 11.6666 1.36011 7.99998 1.36011Z" fill="#39D6DE"/>
</svg>
