<svg width="32" height="32" viewBox="0 0 32 32" fill="none" xmlns="http://www.w3.org/2000/svg">
<path d="M21.1467 5.85341V25.8534C21.1467 28.0801 22.6667 29.3334 24.3333 29.3334C25.8533 29.3334 27.52 28.2801 27.52 25.8534V6.00008C27.52 3.94675 26 2.66675 24.3333 2.66675C22.6667 2.66675 21.1467 4.08008 21.1467 5.85341ZM12.8133 16.0001V25.8534C12.8133 28.0934 14.36 29.3334 16 29.3334C17.52 29.3334 19.1867 28.2801 19.1867 25.8534V16.1467C19.1867 14.0934 17.6667 12.8134 16 12.8134C14.3333 12.8134 12.8133 14.2267 12.8133 16.0001ZM7.66668 22.9734C9.42668 22.9734 10.8533 24.4001 10.8533 26.1467C10.8533 27.9067 9.42668 29.3334 7.66668 29.3334C5.90668 29.3334 4.48001 27.9067 4.48001 26.1467C4.48001 24.4001 5.90668 22.9734 7.66668 22.9734Z" fill="#EEEEEE"/>
</svg>
