<svg width="22" height="23" viewBox="0 0 22 23" fill="none" xmlns="http://www.w3.org/2000/svg">
<g filter="url(#filter0_d_16_211)">
<path d="M8.19998 1.33325H13.8C15.9333 1.33325 17.6666 3.06659 17.6666 5.19992V10.7999C17.6666 11.8254 17.2593 12.8089 16.5341 13.5341C15.809 14.2592 14.8255 14.6666 13.8 14.6666H8.19998C6.06665 14.6666 4.33331 12.9333 4.33331 10.7999V5.19992C4.33331 4.17441 4.74069 3.19091 5.46583 2.46577C6.19097 1.74063 7.17448 1.33325 8.19998 1.33325ZM8.06665 2.66659C7.43013 2.66659 6.81968 2.91944 6.36959 3.36953C5.9195 3.81962 5.66665 4.43007 5.66665 5.06659V10.9333C5.66665 12.2599 6.73998 13.3333 8.06665 13.3333H13.9333C14.5698 13.3333 15.1803 13.0804 15.6304 12.6303C16.0805 12.1802 16.3333 11.5698 16.3333 10.9333V5.06659C16.3333 3.73992 15.26 2.66659 13.9333 2.66659H8.06665ZM14.5 3.66659C14.721 3.66659 14.933 3.75438 15.0892 3.91066C15.2455 4.06694 15.3333 4.2789 15.3333 4.49992C15.3333 4.72093 15.2455 4.93289 15.0892 5.08917C14.933 5.24545 14.721 5.33325 14.5 5.33325C14.279 5.33325 14.067 5.24545 13.9107 5.08917C13.7544 4.93289 13.6666 4.72093 13.6666 4.49992C13.6666 4.2789 13.7544 4.06694 13.9107 3.91066C14.067 3.75438 14.279 3.66659 14.5 3.66659ZM11 4.66659C11.884 4.66659 12.7319 5.01777 13.357 5.6429C13.9821 6.26802 14.3333 7.11586 14.3333 7.99992C14.3333 8.88397 13.9821 9.73182 13.357 10.3569C12.7319 10.9821 11.884 11.3333 11 11.3333C10.1159 11.3333 9.26808 10.9821 8.64296 10.3569C8.01784 9.73182 7.66665 8.88397 7.66665 7.99992C7.66665 7.11586 8.01784 6.26802 8.64296 5.6429C9.26808 5.01777 10.1159 4.66659 11 4.66659ZM11 5.99992C10.4695 5.99992 9.96084 6.21063 9.58577 6.5857C9.21069 6.96078 8.99998 7.46949 8.99998 7.99992C8.99998 8.53035 9.21069 9.03906 9.58577 9.41413C9.96084 9.7892 10.4695 9.99992 11 9.99992C11.5304 9.99992 12.0391 9.7892 12.4142 9.41413C12.7893 9.03906 13 8.53035 13 7.99992C13 7.46949 12.7893 6.96078 12.4142 6.5857C12.0391 6.21063 11.5304 5.99992 11 5.99992Z" fill="#39D6DE"/>
</g>
<defs>
<filter id="filter0_d_16_211" x="-1" y="0" width="24" height="24" filterUnits="userSpaceOnUse" color-interpolation-filters="sRGB">
<feFlood flood-opacity="0" result="BackgroundImageFix"/>
<feColorMatrix in="SourceAlpha" type="matrix" values="0 0 0 0 0 0 0 0 0 0 0 0 0 0 0 0 0 0 127 0" result="hardAlpha"/>
<feOffset dy="4"/>
<feGaussianBlur stdDeviation="2"/>
<feComposite in2="hardAlpha" operator="out"/>
<feColorMatrix type="matrix" values="0 0 0 0 0 0 0 0 0 0 0 0 0 0 0 0 0 0 0.25 0"/>
<feBlend mode="normal" in2="BackgroundImageFix" result="effect1_dropShadow_16_211"/>
<feBlend mode="normal" in="SourceGraphic" in2="effect1_dropShadow_16_211" result="shape"/>
</filter>
</defs>
</svg>
